<?xml version="1.0" standalone="no"?>
<!DOCTYPE svg PUBLIC "-//W3C//DTD SVG 20010904//EN"
 "http://www.w3.org/TR/2001/REC-SVG-20010904/DTD/svg10.dtd">
<svg version="1.0" xmlns="http://www.w3.org/2000/svg"
 width="676.000000pt" height="369.000000pt" viewBox="0 0 676.000000 369.000000"
 preserveAspectRatio="xMidYMid meet">

<g transform="translate(0.000000,369.000000) scale(0.100000,-0.100000)"
fill="#000000" stroke="none">
<path d="M3085 3542 c-39 -20 -117 -59 -175 -86 -58 -27 -114 -55 -124 -62
-19 -13 -19 -13 0 -12 11 1 34 -9 52 -22 l33 -24 61 34 c53 29 140 85 198 128
14 10 25 9 62 -7 25 -11 47 -23 49 -28 2 -5 57 -40 123 -77 65 -37 162 -96
215 -131 93 -60 174 -99 126 -60 -11 9 -51 35 -90 57 -38 23 -93 58 -121 79
-28 21 -66 44 -85 52 -19 8 -43 24 -54 37 -18 20 -13 19 40 -9 33 -17 85 -42
115 -56 30 -13 78 -37 105 -53 146 -82 204 -112 216 -112 8 0 -7 14 -33 30
-27 17 -51 30 -54 30 -13 0 -434 234 -434 242 0 10 29 -1 145 -57 52 -25 97
-45 100 -45 2 0 64 -29 137 -63 216 -103 325 -149 349 -145 24 3 -20 25 -281
141 -69 31 -222 99 -340 153 -118 53 -226 98 -240 99 -15 2 -54 -11 -95 -33z"/>
<path d="M2975 3256 c-109 -28 -180 -58 -189 -81 -13 -34 -6 -130 10 -154 15
-21 23 -23 68 -18 28 3 78 15 111 26 35 13 99 24 155 27 84 6 106 4 195 -21
55 -15 126 -39 157 -53 32 -14 61 -22 65 -18 5 4 8 53 8 109 l0 101 -34 23
c-19 13 -77 37 -130 53 -83 26 -109 30 -211 29 -85 0 -138 -6 -205 -23z"/>
<path d="M2624 3047 c-8 -21 2 -35 16 -21 5 5 6 15 0 24 -8 12 -10 12 -16 -3z"/>
<path d="M3330 2535 c-19 -7 -45 -14 -57 -14 -27 -1 -25 7 -53 -221 -22 -185
-38 -241 -127 -470 -48 -122 -94 -224 -148 -330 -18 -36 -56 -119 -85 -185
-28 -66 -57 -126 -64 -133 -14 -15 -33 19 -321 583 -156 305 -185 353 -240
404 -26 23 -76 57 -113 74 -64 30 -74 32 -215 35 l-149 4 49 -78 c27 -44 90
-158 140 -254 190 -366 382 -740 526 -1020 63 -124 127 -245 141 -270 22 -39
26 -57 26 -130 0 -238 114 -383 330 -420 36 -6 86 -10 110 -8 l45 3 -3 80 c-3
92 15 204 53 325 26 83 40 119 115 290 l37 85 6 185 c6 211 17 268 87 483 83
250 151 371 283 502 66 66 67 67 67 121 0 162 -111 310 -267 354 -78 23 -123
24 -173 5z m-216 -857 c17 -12 28 -9 20 5 -6 10 -4 10 7 0 18 -17 34 -16 54 3
9 9 18 14 21 11 6 -5 -85 -73 -95 -70 -13 3 -41 65 -34 76 5 8 8 7 11 -3 3 -8
10 -18 16 -22z m-70 -115 c-10 -7 -25 -13 -33 -13 -14 1 -14 2 1 14 10 7 25
13 34 13 15 0 15 -2 -2 -14z m58 -270 c1 -32 2 -69 2 -83 1 -14 5 -31 10 -38
14 -22 1 -24 -95 -12 -90 10 -94 12 -131 51 -21 22 -38 41 -38 43 0 2 14 21
31 42 21 27 30 33 27 19 -2 -12 2 -19 10 -17 6 1 11 -3 10 -9 -2 -6 3 -14 10
-16 6 -3 12 0 12 6 0 6 16 11 35 11 44 0 82 18 88 41 11 40 27 18 29 -38z"/>
<path d="M3081 1222 c-1 -8 -6 -10 -13 -6 -10 5 -10 4 -1 -6 15 -16 28 -8 20
12 -4 11 -6 11 -6 0z"/>
<path d="M3025 1180 c-17 -7 -15 -8 10 -7 17 0 35 -1 42 -4 6 -2 12 1 12 6 2
13 -38 16 -64 5z"/>
<path d="M4315 2310 c-151 -34 -314 -109 -444 -205 -68 -50 -70 -58 -46 -139
8 -27 13 -51 10 -54 -4 -4 -49 44 -66 71 -22 33 -111 -79 -191 -241 -81 -166
-82 -178 -22 -291 26 -50 44 -94 40 -98 -4 -4 -31 20 -60 52 -30 33 -57 57
-60 54 -14 -13 -56 -193 -66 -277 -14 -123 -12 -268 4 -327 14 -50 69 -233 81
-270 4 -11 -18 7 -48 40 l-55 60 -7 -120 c-15 -257 -60 -372 -171 -442 -18
-11 -18 -12 3 -12 36 -1 119 34 163 69 59 47 116 128 170 244 54 115 99 254
180 561 44 166 154 524 189 616 39 102 114 250 164 324 22 33 77 96 121 140
91 90 185 143 302 171 71 18 263 24 319 12 17 -4 3 6 -30 21 -130 62 -319 78
-480 41z"/>
<path d="M3025 2210 c-3 -11 -3 -25 1 -31 4 -7 3 -9 -3 -6 -5 4 -21 -6 -35
-21 -26 -29 -133 -168 -158 -205 -14 -21 -13 -21 12 1 14 13 28 20 30 15 3 -4
3 -2 2 5 -2 6 3 12 11 12 8 0 15 8 15 18 0 9 7 26 15 36 12 16 15 17 15 4 0
-9 6 -19 13 -22 6 -3 1 -3 -11 0 -20 5 -23 3 -18 -14 4 -13 1 -22 -9 -26 -32
-12 -10 -66 27 -66 16 0 23 11 19 33 -1 5 3 6 9 2 5 -3 10 2 10 12 1 14 4 13
15 -7 9 -18 10 -29 3 -38 -6 -7 -8 -15 -4 -19 3 -3 6 -1 6 6 0 7 4 10 9 6 6
-3 8 5 5 19 -2 13 3 41 12 62 10 24 18 79 21 142 5 99 1 123 -12 82z m-17
-156 c-3 -27 -4 -26 -9 8 -3 22 -1 34 4 29 5 -5 7 -21 5 -37z m-22 -51 c-10
-10 -19 5 -10 18 6 11 8 11 12 0 2 -7 1 -15 -2 -18z"/>
<path d="M4565 2156 c-112 -18 -234 -84 -325 -176 -154 -154 -227 -327 -364
-872 -36 -139 -85 -316 -111 -393 -72 -217 -199 -456 -298 -562 -17 -18 -28
-35 -25 -39 11 -10 146 53 212 100 191 136 305 358 456 886 117 410 231 689
342 836 60 80 147 160 222 204 l51 30 -45 -1 c-25 -1 -76 -6 -115 -13z"/>
<path d="M2701 1720 c0 -8 4 -22 9 -30 12 -18 12 -2 0 25 -6 13 -9 15 -9 5z"/>
<path d="M2720 1663 c1 -12 39 -79 40 -70 0 12 -28 77 -34 77 -4 0 -6 -3 -6
-7z"/>
<path d="M2810 1443 c1 -5 9 -23 19 -42 18 -33 19 -34 30 -13 15 29 14 53 -3
46 -8 -3 -17 -1 -21 5 -7 12 -25 15 -25 4z"/>
</g>
</svg>
